<?xml version="1.0" encoding="utf-8" ?><svg xmlns="http://www.w3.org/2000/svg" xmlns:xlink="http://www.w3.org/1999/xlink" width="896" height="1152" viewBox="0 0 896 1152"><path fill="#C4C3C3" d="M0 0L896 0L896 902.524L896 1152L0 1152L0 892.859L0 0Z"/><path fill="#263A71" d="M557.98 664.13L560.502 661.467C560.189 665.23 559.619 672.413 560.263 676.01C565.846 679.537 570.975 683.101 575.141 688.335C585.621 701.499 605.759 751.498 618.086 757.794L776.244 829.209L820.092 849.383C847.108 861.996 877.34 878.563 896 902.524L896 1152L0 1152L0 892.859C31.9988 865.443 85.3299 843.7 123.345 826.213L211.769 784.992L245.206 770.079C252.328 766.913 260.515 763.464 267.096 759.311C269.391 757.862 273.302 750.793 274.771 748.287C280.317 738.9 285.566 729.341 290.511 719.624C299.308 702.69 303.356 691.736 319.954 680.553C319.78 676.307 319.575 672.063 319.338 667.82C322.909 671.654 326.268 675.463 330.188 678.961C343.098 690.48 389.84 719.742 406.2 723.706C419.277 726.875 434.958 726.254 448.308 725.468C456.099 725.01 464.396 724.36 471.827 721.881C485.107 717.45 527.857 691.905 539.119 682.918C546.125 677.327 552.044 670.817 557.98 664.13Z"/><path fill="#E5A082" d="M557.98 664.13L560.502 661.467C560.189 665.23 559.619 672.413 560.263 676.01C560.257 676.97 560.188 679.098 560.258 679.962C560.219 684.272 560.348 690.216 560.119 694.394C557.576 723.86 547.872 747.809 536.661 775.219C534.393 780.765 523.731 800.537 523.325 803.757C513.381 821.078 500.668 836.388 484.276 847.628C482.046 849.157 479.065 851.265 477.025 853.007C473.901 856.373 471.337 860.473 468.672 864.226C459.144 877.638 449.232 891.348 438.614 903.911C435.444 895.169 416.641 863.832 410.457 856.689C401.49 848.615 390.619 842.456 382.04 833.837C375.717 827.484 369.93 820.681 364.83 813.306C355.329 803.989 320.297 749.094 319.842 736.36C320.714 719.376 321.376 701.473 320.162 684.48C320.198 683.523 320.021 681.591 319.954 680.553C319.78 676.307 319.575 672.063 319.338 667.82C322.909 671.654 326.268 675.463 330.188 678.961C343.098 690.48 389.84 719.742 406.2 723.706C419.277 726.875 434.958 726.254 448.308 725.468C456.099 725.01 464.396 724.36 471.827 721.881C485.107 717.45 527.857 691.905 539.119 682.918C546.125 677.327 552.044 670.817 557.98 664.13Z"/><path fill="#D37E68" d="M557.98 664.13C557.956 665.396 557.91 667.951 557.268 668.931C550.479 679.305 536.233 694.406 527.368 702.78C513.689 715.702 490.216 736.112 474.675 745.659C459.038 752.615 433.951 757.697 417.215 757.606C397.837 757.5 375.781 735.917 360.224 725.311C356.852 723.011 345.59 712.342 342.704 714.182C339.856 719.154 338.067 731.862 337.689 737.703C336.325 758.793 349.635 778.97 357.492 797.79C359.293 802.103 364.338 809.188 364.83 813.306C355.329 803.989 320.297 749.094 319.842 736.36C320.714 719.376 321.376 701.473 320.162 684.48C320.198 683.523 320.021 681.591 319.954 680.553C319.78 676.307 319.575 672.063 319.338 667.82C322.909 671.654 326.268 675.463 330.188 678.961C343.098 690.48 389.84 719.742 406.2 723.706C419.277 726.875 434.958 726.254 448.308 725.468C456.099 725.01 464.396 724.36 471.827 721.881C485.107 717.45 527.857 691.905 539.119 682.918C546.125 677.327 552.044 670.817 557.98 664.13Z"/><path fill="#1C2A4F" d="M544.254 826.392C549.397 826.741 562.066 827.326 566.437 829.413C590.141 840.73 612.299 856.216 635.098 869.315C638.131 871.058 641.609 873.232 644.466 875.196C635.749 878.476 556.042 858.398 546.624 862.856C509.175 880.583 465.919 897.307 429.359 916.142C431.069 913.472 432.158 912.125 434.193 909.687C411.501 899.61 389.221 887.842 366.734 877.259C357.427 872.878 347.967 868.141 338.921 863.242C308.084 869.903 271.566 874.975 240.16 879.814C257.497 868.019 274.644 856.952 292.7 846.234C301.238 841.165 311.196 834.408 320.35 830.896C325.875 828.777 336.23 828.062 342.3 827.495C342.531 827.744 342.768 827.988 343.01 828.228C357.897 843.036 389.384 856.569 410.457 856.689C416.641 863.832 435.444 895.169 438.614 903.911C449.232 891.348 459.144 877.638 468.672 864.226C471.337 860.473 473.901 856.373 477.025 853.007C494.766 855.659 519.484 844.665 533.884 834.281C537.248 831.855 540.779 828.638 544.254 826.392Z"/><path fill="#D37E68" d="M523.325 803.757C523.731 800.537 534.393 780.765 536.661 775.219C547.872 747.809 557.576 723.86 560.119 694.394C560.189 708.325 560.819 719.537 561.893 733.442C557.657 746.595 532.119 793.831 523.325 803.757Z"/><path fill="#1C2A4F" d="M560.258 679.962C566.424 684.876 570.41 699.983 571.68 707.512C572.808 714.198 565.827 728.205 561.893 733.442C560.819 719.537 560.189 708.325 560.119 694.394C560.348 690.216 560.219 684.272 560.258 679.962Z"/><path fill="#1C2A4F" d="M320.162 684.48C321.376 701.473 320.714 719.376 319.842 736.36L319.293 737.13L318.46 736.637C316.005 731.777 309.897 720.402 309.525 715.551C308.933 707.827 315.094 690.283 320.162 684.48Z"/><path fill="#212121" d="M419.751 211.56C434.999 218.267 452.962 223.415 469.037 228.041L537.61 247.108C529.452 239.465 522.842 235.016 513.3 229.439C533.018 235.585 542.619 241.984 558.715 254.891C565.104 260.014 571.633 264.539 578.253 270.15C575.942 261.97 574.376 257.726 570.734 250.136C583.219 260.815 593.458 280.024 596.686 295.996C598.117 296.837 599.539 297.694 600.952 298.566C612.293 305.598 615.283 312.6 618.203 325.004C615.296 321.367 613.371 319.047 610.049 315.689C612.833 330.771 609.206 330.925 607.998 344.336C608.237 352.489 610.686 360.498 610.609 368.703C610.363 394.803 607.198 421.027 604.084 446.922C603.456 452.153 602.772 458.409 601.444 463.357C593.886 470.386 589.791 475.075 588.711 486.251C587.99 490.619 588.178 494.638 588.78 499.005L590.05 507.885C592.638 526.256 593.773 533.265 593.443 551.816C593.173 564.477 591.263 575.395 590.375 587.541C587.791 607.51 580.588 630.882 570.489 648.569C568.768 651.583 562.96 657.999 560.502 661.467L557.98 664.13C552.044 670.817 546.125 677.327 539.119 682.918C527.857 691.905 485.107 717.45 471.827 721.881C464.396 724.36 456.099 725.01 448.308 725.468C434.958 726.254 419.277 726.875 406.2 723.706C389.84 719.742 343.098 690.48 330.188 678.961C326.268 675.463 322.909 671.654 319.338 667.82C312.57 659.643 305.033 650.857 300.557 641.21C292.341 623.506 287.658 604.497 284.628 585.37C282.55 573.734 281.403 561.951 281.199 550.133C281.064 536.351 282.869 524.389 284.732 510.81C285.377 506.458 286 502.102 286.598 497.743L286.981 494.143C288.865 482.599 287.185 472.757 277.74 465.124C276.057 460.054 274.915 450.145 274.179 444.619C273.04 435.675 271.746 426.752 270.296 417.853C266.813 396.925 259.923 375.818 259.331 354.632C258.987 342.281 266.25 327.657 270.868 316.275C278.494 297.477 291.745 282.36 306.175 268.475C297.319 271.373 291.514 276.137 284.812 282.232C293.674 264.87 309.514 252.431 327.699 246.366C343.064 241.242 352.341 237.651 366.243 229.093C360.092 227.164 355.625 227.088 349.234 226.539C374.916 218.549 401.01 219.072 427.496 222.092C423.982 218.55 422.245 215.824 419.751 211.56Z"/><path fill="#E5A082" d="M443.177 370.598C445.557 369.716 463.908 359.272 467.829 357.189C490.837 344.962 493.154 345.311 517.573 352.906C509.031 353.819 503.403 353.618 494.974 353.653C514.46 360.017 535.35 362.242 555.209 355.972C559.406 359.272 567.725 366.888 571.096 370.963C570.315 380.274 568.341 392.396 566.767 401.708C571.134 409.458 580.72 423.17 583.034 430.912C585.491 439.13 583.374 456.758 583.951 465.78C585.968 497.292 589.342 526.219 580.505 557.191C574.793 577.211 557.214 586.271 545.724 602.556C539.292 612.016 533.167 631.789 526.542 640.905C523.949 637.353 519.44 631.058 517.428 627.171C518.749 618.086 524.726 591.077 517.982 584.181C509.654 575.665 472.518 560.184 460.021 557.032C455.059 555.781 440.633 562.066 434.797 563.566C428.161 561.653 421.169 557.764 414.284 557.372C406.277 556.916 370.897 573.887 362.483 578.569C356.588 581.849 353.678 584.941 351.855 591.539C345.62 614.096 364.232 618.777 345.585 642.134C338.799 629.669 336.096 613.735 329.823 603.552C325.324 596.248 307.573 581.983 301.1 573.519C289.264 558.046 287.782 528.106 288.178 509.203C288.388 499.171 290.177 484.84 291.118 474.662C292.222 462.71 289.818 438.522 293.268 429.023C298.81 413.764 304.813 404.085 309.069 387.393C328.398 393.609 339.348 395.019 359.876 393.095C344.952 398.699 335.946 399.121 320.498 399.729C334.233 402.054 340.859 402.291 354.863 401.552C387.945 396.663 409.365 385.228 437.392 366.948C445.41 361.719 457.726 352.707 466.216 349.277C462.021 354.145 445.284 366.394 443.177 370.598Z"/><path fill="#D37E68" d="M466.216 349.277C462.021 354.145 445.284 366.394 443.177 370.598L442.795 373.254C439.747 375.033 436.767 376.863 433.755 378.788C412.805 392.172 388.322 398.456 363.897 401.624C360.62 402.049 358.108 402.071 354.863 401.552C387.945 396.663 409.365 385.228 437.392 366.948C445.41 361.719 457.726 352.707 466.216 349.277Z"/><path fill="#D37E68" d="M443.177 370.598C445.557 369.716 463.908 359.272 467.829 357.189C490.837 344.962 493.154 345.311 517.573 352.906C509.031 353.819 503.403 353.618 494.974 353.653C491.8 354.15 490.484 351.041 487.673 352.24C477.82 356.443 467.636 358.034 458.663 363.9L459.177 363.742C454.465 366.346 446.609 370.189 442.795 373.254L443.177 370.598Z"/><path fill="#212121" d="M465.331 450.696C470.978 454.635 489.263 451.059 496.253 449.687C493.917 452.398 489.85 454.166 488.414 456.729C489.668 457.581 489.68 457.308 491.439 457.455C493.276 457.122 495.259 456.876 497.118 456.608C499.62 455.292 503.839 455.484 506.738 455.579C520.152 456.015 535.527 457.765 544.372 469.154C546.031 471.29 546.49 473.287 548.454 475.523L548.503 476.688C547.803 476.416 547.378 476.226 546.706 475.89L546.577 476.664L546.157 477.407C544.317 477.582 544.134 477.49 542.297 477.07C535.327 479.238 522.437 481.941 515.287 480.799C509.409 480.56 505.212 480.316 499.443 479.109C496.407 479.487 476.872 477.675 474.072 476.199L472.561 476.664L472.211 477.343C474.261 483.264 499.148 493.417 504.663 497.873C492.56 496.149 474.28 488.168 466.574 478.178C463.234 473.849 462.776 469.312 458.025 464.651C460.009 459.36 462.394 455.416 465.331 450.696Z"/><path fill="#D37E68" d="M465.331 450.696C470.978 454.635 489.263 451.059 496.253 449.687C493.917 452.398 489.85 454.166 488.414 456.729C489.668 457.581 489.68 457.308 491.439 457.455C493.276 457.122 495.259 456.876 497.118 456.608C499.62 455.292 503.839 455.484 506.738 455.579C520.152 456.015 535.527 457.765 544.372 469.154C546.031 471.29 546.49 473.287 548.454 475.523L548.503 476.688C547.803 476.416 547.378 476.226 546.706 475.89L546.577 476.664C543.58 474.961 539.36 470.679 536.251 468.453C515.828 453.832 488.401 457.67 472.561 476.664L472.211 477.343C474.261 483.264 499.148 493.417 504.663 497.873C492.56 496.149 474.28 488.168 466.574 478.178C463.234 473.849 462.776 469.312 458.025 464.651C460.009 459.36 462.394 455.416 465.331 450.696Z"/><path fill="#503329" d="M497.118 456.608C494.465 458.075 484.031 461.669 481.061 462.04C484.377 459.557 487.52 458.568 491.439 457.455C493.276 457.122 495.259 456.876 497.118 456.608Z"/><path fill="#FCFCFC" d="M515.287 480.799C522.572 476.161 522.912 472.74 522.492 464.666C530.323 467.598 535.831 472.028 542.297 477.07C535.327 479.238 522.437 481.941 515.287 480.799Z"/><path fill="#FCFCFC" d="M474.072 476.199C477.599 473.725 489.73 464.658 493.493 465.041C495.718 470.077 492.37 472.617 499.443 479.109C496.407 479.487 476.872 477.675 474.072 476.199Z"/><path fill="#3D3C3D" d="M504.662 463.017C511.452 462.723 515.874 465.21 510.292 471.574C504.058 472.833 500.253 467.836 504.662 463.017Z"/><path fill="#D37E68" d="M372.86 450.417C379.269 451.611 396.935 453.916 402.492 451.755C408.431 453.906 410.636 460.289 412.835 465.82C404.254 481.983 389.758 491.216 372.55 496.554C369.998 497.351 367.414 498.043 364.805 498.627C371.927 493.469 394.108 484.987 396.471 478.166L396.33 476.715L395.407 476.736C393.514 477.359 372.5 479.304 370.131 479.122C365.074 480.125 358.858 480.868 353.697 480.75C348.481 482.274 332.766 479.519 327.138 477.783C325.405 478.172 325.486 478.2 323.759 477.881L323.816 477.158C321.793 464.157 345.506 455.899 355.398 456.32C358.58 456.456 369.209 455.105 371.542 456.631C375.839 456.956 379.007 457.838 383.059 459.372C382.147 453.127 375.884 454.451 372.86 450.417Z"/><path fill="#212121" d="M323.816 477.158C333.252 466.786 343.674 460.76 357.907 460.066C374.509 459.258 382.347 465.234 394.966 474.982C395.439 475.348 396.254 476.121 396.33 476.715L395.407 476.736C393.514 477.359 372.5 479.304 370.131 479.122C365.074 480.125 358.858 480.868 353.697 480.75C348.481 482.274 332.766 479.519 327.138 477.783C325.405 478.172 325.486 478.2 323.759 477.881L323.816 477.158Z"/><path fill="#FCFCFC" d="M345.891 465.111C346.094 472.092 346.808 477.142 353.697 480.75C348.481 482.274 332.766 479.519 327.138 477.783C333.931 472.595 338.283 469.018 345.891 465.111Z"/><path fill="#FCFCFC" d="M373.77 464.129C382.646 468.095 387.269 471.376 395.407 476.736C393.514 477.359 372.5 479.304 370.131 479.122C374.796 474.316 374.556 470.216 373.77 464.129Z"/><path fill="#3D3C3D" d="M360.381 463.059C367.437 464.147 368.704 467.728 362.823 472.13C358.547 471.986 355.644 469.962 356.827 465.398C358.205 463.769 358.303 463.767 360.381 463.059Z"/><path fill="#503329" d="M371.542 456.631C375.839 456.956 379.007 457.838 383.059 459.372C383.635 459.922 389.025 463.017 390.073 463.635C384.137 461.319 377.202 459.073 371.542 456.631Z"/><path fill="#212121" d="M465.331 450.696C463.986 447.659 462.035 444.009 462.618 440.59C462.904 438.912 463.799 437.839 465.217 436.945C473.433 431.764 527.978 422.895 537.731 425.513C550.75 429.008 561.917 442.993 568.299 454.139C565.781 452.66 563.246 451.208 560.696 449.785C538.143 437.336 520.276 442.743 496.253 449.687C489.263 451.059 470.978 454.635 465.331 450.696Z"/><path fill="#212121" d="M302.96 455.818C307.764 447.082 321.928 428.394 332.014 426.871C344.932 424.92 399.727 430.51 405.857 440.475C406.407 444.205 404.405 448.592 402.492 451.755C396.935 453.916 379.269 451.611 372.86 450.417C362.22 447.367 346.481 444.21 335.318 443.395C324.862 442.631 311.743 450.214 302.96 455.818Z"/><path fill="#D37E68" d="M473.425 524.031C476.744 528.035 482.052 537.375 481.323 543.004C479.446 557.505 459.21 553.675 450.3 555.556C435.873 558.602 435.628 558.473 421.411 555.068C414.268 553.358 398.194 557.904 392.043 549.567C386.244 541.795 392.925 530.418 397.718 523.771C395.73 528.974 389.039 544.797 395.089 548.978C396.854 549.127 398.414 548.694 399.883 547.665L402.695 546.039C405.573 541.406 409.204 541.832 414.036 538.768C421.605 543.818 429.147 549.758 438.758 547.831C445.732 546.432 450.173 541.926 455.797 539.523C458.772 541.236 471.208 547.744 473.714 547.932C484.294 548.722 475.311 528.46 473.425 524.031Z"/><path fill="#212121" d="M402.695 546.039C412.296 542.937 418.737 543.374 424.596 552.542C421.288 551.552 399.715 547.566 399.883 547.665L402.695 546.039Z"/><path fill="#212121" d="M456.642 543.513C462.716 544.403 465.615 545.459 471.188 548.059L457.715 549.067C452.566 549.881 450.078 550.655 445.189 552.221C448.687 547.916 451.227 545.193 456.642 543.513Z"/><path fill="#E5A082" d="M449.27 581.817C463.24 582.768 488.512 592.133 500.943 598.728C514.7 622.566 498.203 644.499 479.326 658.693C470.847 654.157 462.109 650.124 453.157 646.615C458.581 638.929 463.582 630.953 468.136 622.721C452.715 622.564 437.104 622.263 421.705 622.753C416.519 623.185 410.645 623.254 405.387 623.422C409.592 631.095 414.887 639.357 419.523 646.875C408.657 651.358 402.804 653.787 392.814 659.576C372.821 642.718 358.491 627.195 370.717 599.781C380.647 594.07 407.043 584.737 419.146 583.381C421.847 583.078 429.917 583.529 433.231 583.529C439.393 583.529 443.216 582.862 449.27 581.817Z"/><path fill="#D37E68" d="M434.764 589.395C449.246 584.851 456.524 583.497 471.145 589.422C480.654 593.274 489.663 597.052 498.974 601.517L499.345 602.447C498.215 603.033 498.046 602.94 496.753 603.059C489.846 603.686 476.405 612.646 468.177 614.912C441.2 622.342 400.957 620.3 377.383 603.909C376.036 603.904 374.693 603.525 373.353 603.238L372.515 602.754C373.828 600.775 392.403 594.033 396.395 592.136C412.544 584.459 418.473 583.934 434.764 589.395Z"/><path fill="#D37E68" d="M434.764 589.395C449.246 584.851 456.524 583.497 471.145 589.422C480.654 593.274 489.663 597.052 498.974 601.517L499.345 602.447C498.215 603.033 498.046 602.94 496.753 603.059C480.123 602.516 460.226 599.233 443.813 601.475C432.808 602.978 424.657 601.346 413.733 601.01C401.733 601.644 389.405 602.946 377.383 603.909C376.036 603.904 374.693 603.525 373.353 603.238L372.515 602.754C373.828 600.775 392.403 594.033 396.395 592.136C412.544 584.459 418.473 583.934 434.764 589.395Z"/><path fill="#96473E" d="M373.353 603.238C376.04 601.266 386.173 602.026 390 601.524C405.646 599.468 419.857 599.908 435.507 601.062C441.802 601.527 450.554 598.93 457.979 599.475C471.561 600.471 485.352 601.21 498.974 601.517L499.345 602.447C498.215 603.033 498.046 602.94 496.753 603.059C480.123 602.516 460.226 599.233 443.813 601.475C432.808 602.978 424.657 601.346 413.733 601.01C401.733 601.644 389.405 602.946 377.383 603.909C376.036 603.904 374.693 603.525 373.353 603.238Z"/><path fill="#E5A082" d="M601.444 463.357L608.444 461.621C614.213 463.871 616.59 467.236 619.146 473.033C622.326 480.245 624.808 488.884 625.195 496.815C624.528 506.397 619.918 518.349 617.839 527.925L611.22 558.821C610.284 563.304 609.538 571.033 607.706 574.957C604.477 581.876 597.353 586.167 590.375 587.541C591.263 575.395 593.173 564.477 593.443 551.816C593.773 533.265 592.638 526.256 590.05 507.885L588.78 499.005C588.178 494.638 587.99 490.619 588.711 486.251C589.791 475.075 593.886 470.386 601.444 463.357Z"/><path fill="#D37E68" d="M588.707 494.691C592.762 489.066 605.006 469.761 614.13 474.578C616.649 475.908 617.775 481.765 617.912 484.374C619.965 500.389 617.854 505.815 611.485 519.874C608.727 511.798 607.608 505.876 606.684 497.373C606.167 492.616 605.696 486.595 604.479 482.066L604.322 481.462C596.53 486.273 593.89 492.295 588.78 499.005C588.178 494.638 587.99 490.619 588.711 486.251C588.784 489.064 588.783 491.878 588.707 494.691Z"/><path fill="#D37E68" d="M590.05 507.885C595.916 511.855 603.361 519.964 604.614 527.174C605.895 534.545 602.948 540.855 599.031 546.983C597.528 549.335 597.167 549.298 594.376 549.813L593.443 551.816C593.773 533.265 592.638 526.256 590.05 507.885Z"/><path fill="#E5A082" d="M284.628 585.37C269.866 581.216 269.387 567.816 267.996 555.502C267.134 547.865 264.52 539.204 262.919 531.603C260.197 518.681 251.849 506.124 254.199 492.51C255.663 484.176 256.897 471.881 263.366 466.05C266.441 463.278 274.044 464.564 277.74 465.124C287.185 472.757 288.865 482.599 286.981 494.143L286.598 497.743C286 502.102 285.377 506.458 284.732 510.81C282.869 524.389 281.064 536.351 281.199 550.133C281.403 561.951 282.55 573.734 284.628 585.37Z"/><path fill="#D37E68" d="M267.886 522.64C262.784 512.213 259.414 504.705 259.83 492.68C260.869 462.596 277.41 480.171 286.981 494.143L286.598 497.743C281.336 491.507 281.63 488.468 273.098 482.023C271.712 497.791 270.617 507.201 267.886 522.64Z"/><path fill="#D37E68" d="M284.732 510.81C282.869 524.389 281.064 536.351 281.199 550.133C280.213 547.899 277.851 544.705 276.347 542.41C270.934 534.153 275.983 515.234 284.732 510.81Z"/></svg>